<svg width="111" height="49" viewBox="0 0 111 49" fill="none" xmlns="http://www.w3.org/2000/svg">
<path d="M15.4886 25.5341V33H11.321V15.5455H15.3523V22.3125H15.4972C15.7926 21.5057 16.2756 20.875 16.946 20.4205C17.6222 19.9659 18.4489 19.7386 19.4261 19.7386C20.3466 19.7386 21.1477 19.9432 21.8295 20.3523C22.5114 20.7557 23.0398 21.3267 23.4148 22.0653C23.7955 22.804 23.983 23.6676 23.9773 24.6562V33H19.8097V25.4744C19.8153 24.7472 19.6335 24.179 19.2642 23.7699C18.8949 23.3608 18.375 23.1562 17.7045 23.1562C17.267 23.1562 16.8807 23.2528 16.5455 23.446C16.2159 23.6335 15.9574 23.9034 15.7699 24.2557C15.5881 24.608 15.4943 25.0341 15.4886 25.5341ZM32.6982 33.2472C31.3288 33.2472 30.147 32.9773 29.1527 32.4375C28.1641 31.892 27.4027 31.1165 26.8686 30.1108C26.3402 29.0994 26.076 27.8977 26.076 26.5057C26.076 25.1534 26.343 23.9716 26.8771 22.9602C27.4112 21.9432 28.1641 21.1534 29.1357 20.5909C30.1072 20.0227 31.2521 19.7386 32.5703 19.7386C33.5021 19.7386 34.3544 19.8835 35.1271 20.1733C35.8999 20.4631 36.5675 20.892 37.13 21.4602C37.6925 22.0284 38.13 22.7301 38.4425 23.5653C38.755 24.3949 38.9112 25.3466 38.9112 26.4205V27.4602H27.5334V25.0398H35.0334C35.0277 24.5966 34.9226 24.2017 34.718 23.8551C34.5135 23.5085 34.2322 23.2386 33.8743 23.0455C33.522 22.8466 33.1158 22.7472 32.6555 22.7472C32.1896 22.7472 31.772 22.8523 31.4027 23.0625C31.0334 23.267 30.7408 23.5483 30.5249 23.9062C30.3089 24.2585 30.1953 24.6591 30.1839 25.108V27.571C30.1839 28.1051 30.2891 28.5739 30.4993 28.9773C30.7095 29.375 31.0078 29.6847 31.3942 29.9062C31.7805 30.1278 32.2408 30.2386 32.7749 30.2386C33.1442 30.2386 33.4794 30.1875 33.7805 30.0852C34.0817 29.983 34.3402 29.8324 34.5561 29.6335C34.772 29.4347 34.9339 29.1903 35.0419 28.9006L38.8686 29.0114C38.7095 29.8693 38.3601 30.6165 37.8203 31.2528C37.2862 31.8835 36.5845 32.375 35.7152 32.7273C34.8459 33.0739 33.8402 33.2472 32.6982 33.2472ZM45.821 33.1875C44.8551 33.1875 43.9773 32.9375 43.1875 32.4375C42.3977 31.9375 41.767 31.1875 41.2955 30.1875C40.8239 29.1875 40.5881 27.946 40.5881 26.4631C40.5881 24.9233 40.8324 23.6562 41.321 22.6619C41.8097 21.6676 42.4489 20.9318 43.2386 20.4545C44.0341 19.9773 44.8892 19.7386 45.804 19.7386C46.4915 19.7386 47.0795 19.858 47.5682 20.0966C48.0568 20.3295 48.4602 20.6307 48.7784 21C49.0966 21.3693 49.3381 21.7528 49.5028 22.1506H49.5881V15.5455H53.7557V33H49.6307V30.8778H49.5028C49.3267 31.2812 49.0767 31.6591 48.7528 32.0114C48.429 32.3636 48.0227 32.6477 47.5341 32.8636C47.0511 33.0795 46.4801 33.1875 45.821 33.1875ZM47.2699 29.9403C47.7756 29.9403 48.2074 29.7983 48.5653 29.5142C48.9233 29.2244 49.1989 28.8182 49.392 28.2955C49.5852 27.7727 49.6818 27.1591 49.6818 26.4545C49.6818 25.7386 49.5852 25.1222 49.392 24.6051C49.2045 24.0881 48.929 23.6903 48.5653 23.4119C48.2074 23.1335 47.7756 22.9943 47.2699 22.9943C46.7528 22.9943 46.3153 23.1364 45.9574 23.4205C45.5994 23.7045 45.3267 24.1051 45.1392 24.6222C44.9574 25.1392 44.8665 25.75 44.8665 26.4545C44.8665 27.1591 44.9602 27.7727 45.1477 28.2955C45.3352 28.8182 45.6051 29.2244 45.9574 29.5142C46.3153 29.7983 46.7528 29.9403 47.2699 29.9403ZM62.4936 38.1818C61.2493 38.1818 60.1839 38.0085 59.2976 37.6619C58.4112 37.3153 57.7152 36.8409 57.2095 36.2386C56.7038 35.6364 56.3999 34.9545 56.2976 34.1932L60.2436 33.9716C60.3175 34.2386 60.4538 34.4716 60.6527 34.6705C60.8572 34.8693 61.1214 35.0227 61.4453 35.1307C61.7749 35.2386 62.1612 35.2926 62.6044 35.2926C63.3033 35.2926 63.88 35.1222 64.3345 34.7812C64.7947 34.446 65.0249 33.858 65.0249 33.017V30.7159H64.88C64.7152 31.1193 64.4652 31.4801 64.13 31.7983C63.7947 32.1165 63.3771 32.3665 62.8771 32.5483C62.3828 32.7301 61.8146 32.821 61.1726 32.821C60.218 32.821 59.343 32.5994 58.5476 32.1562C57.7578 31.7074 57.1243 31.0142 56.647 30.0767C56.1754 29.1335 55.9396 27.9205 55.9396 26.4375C55.9396 24.9091 56.1839 23.6506 56.6726 22.6619C57.1612 21.6676 57.8004 20.9318 58.5902 20.4545C59.3857 19.9773 60.2408 19.7386 61.1555 19.7386C61.843 19.7386 62.4311 19.858 62.9197 20.0966C63.4141 20.3295 63.8203 20.6307 64.1385 21C64.4567 21.3693 64.6982 21.7528 64.8629 22.1506H64.9822V19.9091H69.1328V33.0511C69.1328 34.1591 68.8544 35.0938 68.2976 35.8551C67.7408 36.6165 66.9624 37.1932 65.9624 37.5852C64.9624 37.983 63.8061 38.1818 62.4936 38.1818ZM62.6214 29.7869C63.1271 29.7869 63.5589 29.6534 63.9169 29.3864C64.2749 29.1193 64.5504 28.7358 64.7436 28.2358C64.9368 27.7358 65.0334 27.1364 65.0334 26.4375C65.0334 25.7273 64.9368 25.1165 64.7436 24.6051C64.5561 24.0881 64.2805 23.6903 63.9169 23.4119C63.5589 23.1335 63.1271 22.9943 62.6214 22.9943C62.1044 22.9943 61.6669 23.1364 61.3089 23.4205C60.951 23.7045 60.6783 24.1051 60.4908 24.6222C60.3089 25.1335 60.218 25.7386 60.218 26.4375C60.218 27.1364 60.3118 27.7358 60.4993 28.2358C60.6868 28.7358 60.9567 29.1193 61.3089 29.3864C61.6669 29.6534 62.1044 29.7869 62.6214 29.7869Z" fill="white"/>
<path d="M77.9091 33.2472C76.5398 33.2472 75.358 32.9773 74.3636 32.4375C73.375 31.892 72.6136 31.1165 72.0795 30.1108C71.5511 29.0994 71.2869 27.8977 71.2869 26.5057C71.2869 25.1534 71.554 23.9716 72.0881 22.9602C72.6222 21.9432 73.375 21.1534 74.3466 20.5909C75.3182 20.0227 76.4631 19.7386 77.7812 19.7386C78.7131 19.7386 79.5653 19.8835 80.3381 20.1733C81.1108 20.4631 81.7784 20.892 82.3409 21.4602C82.9034 22.0284 83.3409 22.7301 83.6534 23.5653C83.9659 24.3949 84.1222 25.3466 84.1222 26.4205V27.4602H72.7443V25.0398H80.2443C80.2386 24.5966 80.1335 24.2017 79.929 23.8551C79.7244 23.5085 79.4432 23.2386 79.0852 23.0455C78.733 22.8466 78.3267 22.7472 77.8665 22.7472C77.4006 22.7472 76.983 22.8523 76.6136 23.0625C76.2443 23.267 75.9517 23.5483 75.7358 23.9062C75.5199 24.2585 75.4063 24.6591 75.3949 25.108V27.571C75.3949 28.1051 75.5 28.5739 75.7102 28.9773C75.9205 29.375 76.2188 29.6847 76.6051 29.9062C76.9915 30.1278 77.4517 30.2386 77.9858 30.2386C78.3551 30.2386 78.6903 30.1875 78.9915 30.0852C79.2926 29.983 79.5511 29.8324 79.767 29.6335C79.983 29.4347 80.1449 29.1903 80.2528 28.9006L84.0795 29.0114C83.9205 29.8693 83.571 30.6165 83.0312 31.2528C82.4972 31.8835 81.7955 32.375 80.9261 32.7273C80.0568 33.0739 79.0511 33.2472 77.9091 33.2472ZM90.4183 25.5341V33H86.2507V19.9091H90.2138V22.3125H90.3587C90.6484 21.5114 91.1428 20.8835 91.8416 20.429C92.5405 19.9688 93.3729 19.7386 94.3388 19.7386C95.2592 19.7386 96.0575 19.946 96.7337 20.3608C97.4155 20.7699 97.9439 21.3437 98.3189 22.0824C98.6996 22.8153 98.8871 23.6733 98.8814 24.6562V33H94.7138V25.4744C94.7195 24.7472 94.5348 24.179 94.1598 23.7699C93.7905 23.3608 93.2763 23.1562 92.6172 23.1562C92.1797 23.1562 91.7933 23.2528 91.4581 23.446C91.1286 23.6335 90.8729 23.9034 90.6911 24.2557C90.5149 24.608 90.424 25.0341 90.4183 25.5341Z" fill="#4AFFD5"/>
</svg>
